<?xml version="1.0" encoding="utf-8"?>
<!-- Generator: Adobe Illustrator 25.4.0, SVG Export Plug-In . SVG Version: 6.00 Build 0)  -->
<svg version="1.1" id="feathers_logo" xmlns="http://www.w3.org/2000/svg" xmlns:xlink="http://www.w3.org/1999/xlink" x="0px" y="0px"
	 viewBox="0 0 181 130" style="enable-background:new 0 0 181 130;" xml:space="preserve">
<style type="text/css">
	.st0{fill-rule:evenodd;clip-rule:evenodd;fill:#6D6E71;}
	.st1{fill:#6D6E71;}
</style>
<path class="st0" d="M117.12,82.74c2.18,1.53,15.01,10.38,15.01,10.47c-0.04,0.09-0.65,0.22-1.96,0.7
	c-6.15,2.27-5.15,2.27-9.29-2.49c-1.92-2.14-0.96-1.7-3.4-0.79l0.87,6.59l-7.46-2.97c-1.57-0.61-1.26-0.52-2.97-0.09
	c1.26,0.96,8.51,5.58,9.16,5.98c0.31,1.13,0.39,1.48,1.61,1.66c0,0,1.05,0.7,1.48,1.09c1,0.92,2.36,1.96,3.18,2.84l1.35-0.48
	c-0.39-1.09-0.65-1.79-1-3.18c6.8-0.35,9.03-1.74,15.05-3.36c1.44,0.83,7.85,5.8,12.34,9.86c0.87-0.04,1.79-0.35,1.96-0.57
	c-0.39-1.44-3.05-5.15-3.14-6.11c1.83-0.31,4.41-1.09,3.4-3.45c-0.96-2.31-4.45-0.04-5.19,0.09l-1-3.23l9.99-3.62
	c1.88-0.7,7.81-3.58,7.42-6.19c-6.41-2.53-8.72-1.18-15.31,1.22c-2.84,1.05-5.58,2.05-8.33,3.1c0.09-1.4-0.04-2.7-1.57-2.97
	c-1.13-0.17-2.75,0.52-3.49,1c-1.7,1-1.09,0.92-3.05,0c-4.54-2.05-9.07-4.06-13.61-6.06C118.82,81.56,116.82,82.52,117.12,82.74
	L117.12,82.74z"/>
<path class="st1" d="M22.29,109.67c1.49,0,2.7,0.01,3.92,0c7.25-0.06,13.3-3.09,18.89-7.44c2.68-2.09,5.53-4.01,8.45-5.76
	c1.88-1.12,3.97-1.97,6.29-1.76c1.08,0.1,1.92,0.98,2.07,2.05c0.27,1.96-0.83,3.48-1.62,5.08c-0.64,1.29-1.56,2.44-2.23,3.72
	c-0.29,0.55-0.57,1.54-0.3,1.83c0.42,0.46,1.35,0.77,1.98,0.65c2.1-0.38,4.17-0.92,6.22-1.5c1.85-0.52,3.66-1.17,5.5-1.73
	c3.01-0.92,6.01-1.89,9.04-2.71c2.33-0.63,4.71-1.16,7.16-0.88c1.08,0.12,2.11,1,2.26,2.1c0.16,1.22,0.16,2.45,0.22,3.68
	c0.01,0.28,0,0.56-0.02,0.84c-0.19,3.01,1.55,3.41,3.89,2.96c2.32-0.44,4.63-0.98,6.87-1.72c2.94-0.97,5.83-2.12,8.7-3.28
	c1.41-0.56,2.74-1.31,4.1-1.97c0.07,0.13,0.15,0.27,0.22,0.4c-2.37,1.38-4.66,2.94-7.13,4.1c-2.87,1.35-5.85,2.5-8.87,3.46
	c-2.29,0.73-4.73,1.22-7.16,0.85c-1.61-0.25-3.13-1.02-2.99-3.27c0.07-1.07,0.04-2.15,0.08-3.23c0.06-1.82-0.85-2.61-2.63-2.36
	c-4.33,0.6-8.33,2.28-12.42,3.7c-3.6,1.24-7.28,2.27-10.94,3.33c-2.03,0.59-4.11,0.86-6.24,0.45c-1.21-0.23-1.86-0.91-1.93-2.16
	c-0.13-2.14,1.03-3.83,1.95-5.6c0.69-1.32,1.49-2.58,2.14-3.92c0.21-0.44,0.11-1.04,0.15-1.56c-0.57-0.01-1.2-0.18-1.7,0
	c-3.1,1.12-5.87,2.88-8.5,4.83c-3.29,2.44-6.65,4.77-10.56,6.06c-2.42,0.8-4.96,1.38-7.49,1.71c-3.46,0.45-6.96,0.58-10.44,0.84
	c-0.08-0.15-0.15-0.29-0.23-0.44c0.72-1.27,1.47-2.51,2.14-3.8c2.73-5.22,5.52-10.41,8.11-15.7c0.96-1.97,1.07-4.13,0.46-6.37
	c-0.45-1.66-0.38-3.46-0.56-5.47c0.98,1.52,1.79,2.78,2.6,4.03c-1.17-8.48,0.13-16.32,4.37-23.64c0.17,1.93,0.35,3.87,0.52,5.8
	c0.13,0,0.26,0.01,0.38,0.01c0.06-0.28,0.19-0.57,0.17-0.84c-0.41-6.14,2.08-11.33,5.39-16.2c2.72-3.99,6-7.52,9.58-10.76
	c0.05-0.04,0.15-0.03,0.47-0.1c-0.71,3.11-1.19,6.16-0.2,9.53c0.08-0.43,0.14-0.58,0.14-0.74c-0.03-6.49,2.86-11.64,7.42-15.98
	c3.67-3.5,7.97-6.07,12.64-7.97c3.16-1.29,6.36-2.6,9.66-3.42c6.9-1.72,13.92-2.55,21.04-1.57c0.89,0.12,1.78,0.25,2.9,0.41
	c-1.22,1.98-2.27,3.79-3.43,5.53c-1.99,2.96-4.01,5.92-6.11,8.8c-2.44,3.34-5.69,5.62-9.62,6.92c-0.51,0.17-0.99,0.43-1.48,0.64
	c0.03,0.12,0.06,0.23,0.09,0.35c2.17-0.36,4.34-0.73,6.62-1.11c-0.29,0.5-0.57,1-0.88,1.49c-0.31,0.5-0.66,0.98-0.96,1.49
	c-2.81,4.63-5.61,9.28-8.43,13.91c-3.55,5.84-7.35,11.48-12.63,15.95c-3.49,2.96-7.36,5.2-11.84,6.28c-1.22,0.3-2.43,0.6-3.63,1.03
	c3.5,0.21,6.91-0.38,10.29-1.28c0.08,0.09,0.15,0.17,0.23,0.26c-1.11,1.12-2.15,2.33-3.35,3.35c-3.7,3.13-7.89,5.54-12.22,7.67
	c-3.02,1.49-6.22,2.63-9.36,3.86c-1.28,0.5-2.62,0.88-3.96,1.24c-0.52,0.14-1.09,0.09-1.86,0.15c0.65-1.31,1.15-2.48,1.8-3.57
	c2.82-4.72,5.61-9.45,8.55-14.09c2.29-3.61,4.71-7.14,7.22-10.6c3.21-4.41,6.52-8.75,9.89-13.04c5.65-7.2,11.66-14.09,18.48-20.21
	c2.95-2.65,6.19-4.97,9.29-7.44c0.1-0.08,0.2-0.17,0.3-0.25c-0.05-0.09-0.11-0.18-0.16-0.27c-1.35,0.74-2.75,1.4-4.04,2.23
	c-8.35,5.33-15.3,12.19-21.78,19.61c-5.25,6.01-10.2,12.26-14.71,18.82C44.17,72.25,39.97,78.66,36,85.2
	c-4.15,6.84-7.96,13.89-11.9,20.85C23.51,107.1,23.02,108.2,22.29,109.67z"/>
</svg>
